<?xml version="1.0" encoding="UTF-8"?>
<svg xmlns="http://www.w3.org/2000/svg" baseProfile="tiny" version="1.2" viewBox="0 0 113.39 113.39">
  <!-- Generator: Adobe Illustrator 28.7.4, SVG Export Plug-In . SVG Version: 1.2.0 Build 166)  -->
  <g>
    <g id="_レイヤー_1" data-name="レイヤー_1">
      <polygon points="102.91 63.8 102.91 63.8 102.91 63.8 102.91 63.8"/>
      <path d="M89.61,65.21h-17.5v18.61h-2.82v-21.44h20c-2-12.34-10-26.37-15-31.56,3.65-8.09,11-13.81,21.23-16.89-9.85-9.83-29.52-5.16-34.1,4.88-9.69-5.25-28.2,3-30.08,16.73,10.26-3.83,19.8-3.61,27.72.94l.61,29c-7.92-1.19-15.96,1.15-22,6.4-7.44-6.84-20-8.75-29.31-4.19.73,3.17,4.34,18.78,5,21.58h23.46v4.26H14.39l2.61,11.35h36.86c25.51,0,43.43-14.17,48.18-39.67h-12.43ZM46.83,78.66c.4-1.4,1.85-2.21,3.25-1.81,1.13.32,1.91,1.35,1.91,2.52,0,1.45-1.17,2.63-2.62,2.64-1.45,0-2.63-1.17-2.64-2.62,0-.25.03-.49.1-.73Z"/>
    </g>
  </g>
</svg>