<?xml version="1.0" encoding="UTF-8"?>
<svg xmlns="http://www.w3.org/2000/svg" baseProfile="tiny" version="1.2" viewBox="0 0 113.39 113.39">
  <!-- Generator: Adobe Illustrator 28.7.4, SVG Export Plug-In . SVG Version: 1.2.0 Build 166)  -->
  <g>
    <g id="_レイヤー_1" data-name="レイヤー_1">
      <path d="M45,59.19c-7,1.62-8.28-3.49-1.3-5.3,6.99-1.62,8.24,3.48,1.3,5.3Z"/>
      <path d="M8.68,76.51c-2.38-10.97,15.37-19.51,28.68-23.22,9.3-3,19.71-6.37,28.22-13.6h2.55c13.33,0,22.16-3.91,27.17-7.13,1.06-.69,1.36-2.11.67-3.17-.42-.65-1.15-1.04-1.92-1.04h-14.17c8-5,17.39-7.64,27.77-8.51v-5.69c-16.34.91-31.8,7.72-43.49,19.17-7.95,7.94-18.41,11.31-28.54,14.57C20.76,52,.56,61.88,3,76.86c1.16,10.14,7.28,12.14,12.92,13.21,15.75,1.59,74.75.17,91.73.63v-25.26c-15.23,2.43-68.2,10.56-98.97,11.07Z"/>
      <path d="M43.66,53.89c-7,1.81-5.73,6.92,1.3,5.3,6.98-1.82,5.73-6.92-1.3-5.3Z"/>
    </g>
  </g>
</svg>