<?xml version="1.0" encoding="UTF-8"?>
<svg xmlns="http://www.w3.org/2000/svg" baseProfile="tiny" version="1.2" viewBox="0 0 113.39 113.39">
  <!-- Generator: Adobe Illustrator 28.7.4, SVG Export Plug-In . SVG Version: 1.2.0 Build 166)  -->
  <g>
    <g id="_レイヤー_1" data-name="レイヤー_1">
      <g id="_編集モード" data-name="編集モード">
        <path d="M99.21,21.68c0-5.95-4.82-10.77-10.77-10.77H24.94c-5.95,0-10.77,4.82-10.77,10.77v69h5.67v11.32h12.76v-11.29h48.19v11.29h12.75v-11.29h5.67V21.68ZM34,18.43h45.37v8.5h-45.37v-8.5ZM23.08,36.71c-.01-1.49,1.18-2.7,2.67-2.71,0,0,.01,0,.02,0h61.94c1.49,0,2.69,1.2,2.69,2.69h0v28.63c0,1.48-1.21,2.68-2.69,2.68H25.77c-1.49,0-2.69-1.2-2.69-2.69h0v-28.6ZM28.35,85c-2.98,0-5.39-2.41-5.39-5.39,0-2.98,2.41-5.39,5.39-5.39s5.39,2.41,5.39,5.39-2.41,5.39-5.39,5.39h0ZM85,74.2c2.98,0,5.39,2.41,5.39,5.39s-2.41,5.39-5.39,5.39-5.39-2.41-5.39-5.39h0c0-2.98,2.41-5.39,5.39-5.39Z" fill="#040000"/>
      </g>
    </g>
  </g>
</svg>