<?xml version="1.0" encoding="UTF-8"?>
<svg xmlns="http://www.w3.org/2000/svg" baseProfile="tiny" version="1.2" viewBox="0 0 113.4 113.4">
  <!-- Generator: Adobe Illustrator 28.7.4, SVG Export Plug-In . SVG Version: 1.2.0 Build 166)  -->
  <g>
    <g id="_レイヤー_1" data-name="レイヤー_1">
      <polygon points="76.5 62.4 82.2 70.9 104.9 70.9 104.9 62.4 76.5 62.4"/>
      <path d="M11.7,77.3c-3.6-4.5-3.7-10.2-.2-15.5,3.7-5.6,15.8-8.8,27.5-11.8,5.4-1.4,10.9-2.8,15.9-4.6h10.2c13.4,0,22.3-3.9,27.3-7.2,1.1-.7,1.4-2.1.7-3.2-.4-.7-1.2-1.1-1.9-1h-13.7c2.4-1.4,5-2.7,7.6-3.8,7.4-3.1,13.6-4.6,19.8-4.6v-5.7c-6.9,0-13.9,1.6-22,5.1-4,1.8-7.9,3.8-11.7,6.2-4.6,2.9-9.4,5.4-14.4,7.5-5.5,2.3-12.5,4.1-19.2,5.9-13.4,3.4-25.9,6.7-30.8,14.1-4.9,7.4-4.7,15.6.4,22.1,5.6,7,13.8,9.9,28.5,9.9h69.2v-5.7H35.7c-14.9,0-20.4-3-24-7.7Z"/>
      <path d="M30.6,62.3l-11.9,2c-2.2.4-2,3.7.3,3.7h12.1c4.1-.2,3.6-6.3-.5-5.7h0Z"/>
    </g>
  </g>
</svg>