<?xml version="1.0" encoding="UTF-8"?>
<svg xmlns="http://www.w3.org/2000/svg" baseProfile="tiny" version="1.2" viewBox="0 0 113.39 113.39">
  <!-- Generator: Adobe Illustrator 28.7.4, SVG Export Plug-In . SVG Version: 1.2.0 Build 166)  -->
  <g>
    <g id="_レイヤー_1" data-name="レイヤー_1">
      <g id="_編集モード" data-name="編集モード">
        <path d="M56.69,104.88c-26.61,0-48.19-21.58-48.19-48.19S30.08,8.5,56.69,8.5s48.19,21.58,48.19,48.19c-.03,26.6-21.59,48.16-48.19,48.19ZM56.69,14.17c-23.48,0-42.52,19.04-42.52,42.52s19.04,42.52,42.52,42.52,42.52-19.04,42.52-42.52h0c-.03-23.47-19.05-42.49-42.52-42.52Z" fill="#040000"/>
        <path d="M51,85h-8.5V29.76h21.33c8.61,0,15.59,6.98,15.59,15.59s-6.98,15.59-15.59,15.59h-12.83v24.06ZM51,52.4h12.83c3.91.15,7.2-2.91,7.35-6.82.15-3.91-2.91-7.2-6.82-7.35-.18,0-.36,0-.53,0h-12.83v14.17Z" fill="#040000"/>
      </g>
    </g>
  </g>
</svg>