<?xml version="1.0" encoding="UTF-8"?>
<svg xmlns="http://www.w3.org/2000/svg" baseProfile="tiny" version="1.2" viewBox="0 0 113.39 113.39">
  <!-- Generator: Adobe Illustrator 28.7.4, SVG Export Plug-In . SVG Version: 1.2.0 Build 166)  -->
  <g>
    <g id="_レイヤー_1" data-name="レイヤー_1">
      <g id="_編集モード" data-name="編集モード">
        <path d="M84.43,92.35c3.85-1.91,6.29-5.85,6.29-10.15V25.51c0-6.26-5.08-11.34-11.34-11.34h-45.38c-6.24.03-11.29,5.1-11.31,11.34v56.69c0,4.31,2.45,8.24,6.31,10.15l-6.3,9.7h10.3l5.48-8.5h36.45l5.46,8.5h10.32l-6.28-9.7ZM36.86,22.68h39.69v5.67h-39.69v-5.67ZM79.38,36.85c1.56,0,2.83,1.27,2.83,2.83h0v19.85c0,1.56-1.27,2.83-2.83,2.83h-45.38c-1.56,0-2.83-1.27-2.83-2.83h0v-19.85c0-1.56,1.27-2.83,2.83-2.83h45.38ZM36.86,82.2c-3.13,0-5.66-2.54-5.65-5.67,0-3.13,2.54-5.66,5.67-5.65,3.12,0,5.64,2.53,5.65,5.65,0,3.13-2.54,5.66-5.67,5.67ZM70.86,76.53c0-3.13,2.53-5.67,5.66-5.68s5.67,2.53,5.68,5.66c0,2.81-2.05,5.19-4.82,5.61-3.07.49-5.96-1.6-6.45-4.67-.05-.31-.07-.62-.07-.93Z" fill="#040000"/>
      </g>
    </g>
  </g>
</svg>