<?xml version="1.0" encoding="UTF-8"?>
<svg xmlns="http://www.w3.org/2000/svg" baseProfile="tiny" version="1.2" viewBox="0 0 113.39 113.39">
  <!-- Generator: Adobe Illustrator 28.7.4, SVG Export Plug-In . SVG Version: 1.2.0 Build 166)  -->
  <g>
    <g id="_レイヤー_1" data-name="レイヤー_1">
      <polygon points="61.83 56.78 42.5 9.47 5.88 99.18 12.01 99.18 33.66 46.13 22.84 99.18 28.62 99.18 39.67 45.02 39.68 99.18 45.35 99.18 45.34 45.02 53.47 84.79 59.26 84.79 51.36 46.14 55.71 56.78 61.83 56.78"/>
      <path d="M92.25,84.84l8.37-4v-4.29h-8.49v-11.34h8.49c0-7.64-7.16-13.9-16.35-14.72,3.78-2,2.27-8-2.06-8-4.32-.08-5.83,6-2,8-8.52.82-16.12,6.24-16.35,14.72h8.44v11.36h-8.49v4.24l8.38,4c-5,3.16-8.21,8.48-8.69,14.37h6.41c.82-6.79,7-11.63,13.79-10.81,5.66.69,10.12,5.15,10.81,10.81h6.42c-.48-5.88-3.7-11.19-8.68-14.34ZM86.46,76.56h-8.46v-11.35h8.49l-.03,11.35Z"/>
    </g>
  </g>
</svg>