<?xml version="1.0" encoding="UTF-8"?>
<svg xmlns="http://www.w3.org/2000/svg" baseProfile="tiny" version="1.2" viewBox="0 0 113.39 113.39">
  <!-- Generator: Adobe Illustrator 28.7.4, SVG Export Plug-In . SVG Version: 1.2.0 Build 166)  -->
  <g>
    <g id="_レイヤー_1" data-name="レイヤー_1">
      <path d="M43.55,56.63h23.54c-1.73-5.51-2.99-11.16-3.75-16.88h-16c-.77,5.73-2.04,11.37-3.79,16.88Z" fill="#040000"/>
      <polygon points="76.56 70.93 79.39 59.47 31.2 59.47 34.03 70.93 76.56 70.93" fill="#040000"/>
      <rect x="42.56" y="25.51" width="25.51" height="11.4" fill="#040000"/>
      <polygon points="58.15 22.68 58.15 5.68 52.48 5.68 52.48 22.68 52.48 22.69 58.15 22.69 58.15 22.68" fill="#040000"/>
      <path d="M55.27,87.89c10.84,0,15.6,8.51,25.52,17h18.12c-9.91-8.9-18.24-19.43-24.61-31.13h-38c-6.38,11.7-14.7,22.22-24.61,31.12h18c9.98-8.49,14.74-16.99,25.58-16.99Z" fill="#040000"/>
    </g>
  </g>
</svg>