<?xml version="1.0" encoding="UTF-8"?>
<svg xmlns="http://www.w3.org/2000/svg" baseProfile="tiny" version="1.2" viewBox="0 0 113.39 113.39">
  <!-- Generator: Adobe Illustrator 28.7.4, SVG Export Plug-In . SVG Version: 1.2.0 Build 166)  -->
  <g>
    <g id="_レイヤー_2">
      <g>
        <path d="M43.62,58.93c-15.06-.66-35.15-7.8-35.15-7.8,7.93,16.49,18.76,25.01,30.93,28.35,1.26-6.78,2.83-13.7,4.22-20.56h0Z"/>
        <path d="M69.72,58.94c1.39,6.86,2.96,13.78,4.22,20.56,12.18-3.34,23.02-11.86,30.96-28.36,0,0-20.12,7.16-35.18,7.8Z"/>
        <path d="M68.6,67.44c-2.46-11.61-4.66-22.14-5.74-34.8-3.7,1.9-8.69,1.9-12.38,0-1.74,24.27-10.15,45.57-10.81,69.52h33.99c-.18-11.77-2.63-23.16-5.06-34.71h0Z"/>
        <path d="M49.35,28.56c7.18,6.22,18.73.92,18.66-8.65,0-6.25-5.09-11.34-11.34-11.34-10.53,0-15.32,13.27-7.32,19.99Z"/>
      </g>
    </g>
  </g>
</svg>