<?xml version="1.0" encoding="UTF-8"?>
<svg xmlns="http://www.w3.org/2000/svg" baseProfile="tiny" version="1.2" viewBox="0 0 113.54 113.54">
  <!-- Generator: Adobe Illustrator 28.7.4, SVG Export Plug-In . SVG Version: 1.2.0 Build 166)  -->
  <g>
    <g id="_レイヤー_2">
      <g>
        <path d="M75.76,11.33h-38.02c-2.44,2.81-8.94,5.1-14.99,5.1l12.52,17.48h42.97l12.52-17.48c-6.05,0-12.55-2.29-14.99-5.1h-.01Z"/>
        <polygon points="79.39 53.74 79.39 56.72 79.39 59.56 76.56 59.56 36.87 59.56 34.04 59.56 34.04 56.72 34.04 53.74 13.89 53.85 19.83 62.23 19.83 102.03 25.5 102.03 25.5 70.89 87.89 70.89 87.89 102.03 93.57 102.03 93.57 62.29 93.59 62.29 99.57 53.85 79.39 53.74"/>
        <g>
          <path d="M5.74,42.57l7.07,8.54,21.23-.09v-14.21h-11.39c-2.75,3.17-10.09,5.76-16.91,5.76Z"/>
          <path d="M90.81,36.81h-11.41v14.21l21.25.09,7.07-8.54c-6.82,0-14.16-2.59-16.91-5.76Z"/>
          <polygon points="41.7 36.88 36.87 36.88 36.87 51.01 36.87 56.72 76.56 56.72 76.56 51.01 76.56 36.88 71.75 36.88 41.7 36.88"/>
        </g>
      </g>
    </g>
  </g>
</svg>